<?xml version="1.0"?>
<svg width="302" height="307" xmlns="http://www.w3.org/2000/svg">

 <g>
  <title>background</title>
  <rect fill="none" id="canvas_background" height="309" width="304" y="-1" x="-1"/>
 </g>
 <g>
  <title>Layer 1</title>
  <path id="svg_2" fill="#666666" d="m11.380002,244.705002l7.232116,-218.570589l84.374676,-0.803566l23.705269,9.241034l6.026764,6.830334l6.428543,0.401783l2.410706,-4.419628l9.642822,6.830334l-22.499908,3.616058l8.437469,3.214275l8.03566,-3.616062l11.651749,3.616062l-4.821396,-5.223202l8.437454,6.830334l6.026764,1.205357l26.517746,-9.642822l18.482071,0.80357l24.107056,-19.687426l52.231934,-22.499915l2.8125,112.097787l-9.642792,5.223198l4.419617,8.437469l-1.607147,9.241028l1.607147,5.22319l-8.035675,20.089218l-0.803589,12.857101l-3.214264,0l0.803558,4.419617l-4.419617,8.437454l2.008911,4.419647l-2.008911,8.437454l-22.499908,19.687439l-9.241043,4.419617l-3.616058,-5.223206l-3.214279,0l-6.026749,5.223206l-1.607147,6.026749l-6.428558,0l-4.821396,8.437485l0,6.026749l-4.419647,1.205368l3.214279,4.017838l1.205368,8.035675l-4.419647,-0.803558l-4.419617,6.830322l-3.214279,-9.642822l-3.616058,-2.41069l-3.616058,1.607132l-10.044586,18.080292l2.410706,14.464203l-7.633911,2.008942l-2.812485,12.053528l-17.678513,2.410706l-6.428528,-9.642822l-8.437485,-4.821411l-5.223175,-13.258881l-8.437469,2.8125l-8.035698,8.437439l-10.044601,0.803589l-3.616058,-4.821411l-10.446388,-4.419617l-6.83033,2.410706l-1.60714,3.616058l-4.419624,0l-10.044601,-11.249969l-6.83033,-1.607147l-7.232113,0.803589l-8.437466,-4.419647l-6.026764,-16.473145l-9.642822,-7.633896l-11.249956,2.008911l-6.026764,-6.026749l-6.830331,4.017838z"/>
  <path d="m127.019836,147.411819c0,-7.601349 6.816803,-13.758438 15.232574,-13.758438c8.415787,0 15.232559,6.157089 15.232559,13.758438c0,7.601349 -6.816772,13.758438 -15.232559,13.758438c-8.415771,0 -15.232574,-6.157089 -15.232574,-13.758438z" id="svg_14" stroke-opacity="null" stroke-linecap="null" stroke-linejoin="null" stroke-width="NaN" fill-opacity="null" fill="#d36868"/>
  <g id="svg_1"/>
  <g id="svg_16">
   <path id="svg_15" d="m133.899063,157.239273l16.952362,16.952362l15.723938,-15.723923l-32.6763,-1.228439z" stroke-opacity="null" stroke-width="null" fill="#d36868"/>
   <path d="m144.21788,147.411819c0,-7.601349 6.816803,-13.758438 15.232574,-13.758438c8.415787,0 15.232559,6.157089 15.232559,13.758438c0,7.601349 -6.816772,13.758438 -15.232559,13.758438c-8.415771,0 -15.232574,-6.157089 -15.232574,-13.758438z" id="svg_13" stroke-opacity="null" stroke-linecap="null" stroke-linejoin="null" stroke-width="NaN" fill-opacity="null" fill="#d36868"/>
  </g>
  <g id="svg_10">
   <g transform="matrix(1.5641909076490779,0,0,1.5641909076490779,8.86355026850768,231.68154671501142) " id="svg_8"/>
   <path id="svg_9" fill="#c74141" d="m171.632477,136.405701c-5.676453,-5.624817 -14.753464,-5.742126 -20.63327,-0.45047c-5.881363,-5.291656 -14.955231,-5.174347 -20.634811,0.45047c-5.851639,5.793793 -5.851639,15.186737 0,20.983658c1.672119,1.656479 17.289017,17.113846 17.289017,17.113846c1.850433,1.833237 4.842743,1.833237 6.69162,0c0,0 17.099731,-16.927704 17.289001,-17.113846c5.85321,-5.796921 5.85321,-15.189865 -0.001556,-20.983658zm-2.228973,18.775024l-17.289017,17.113831c-0.614731,0.611618 -1.617386,0.611618 -2.228973,0l-17.289017,-17.113831c-4.614365,-4.567474 -4.614365,-11.998917 0,-16.566376c4.448563,-4.403198 11.600037,-4.558044 16.281677,-0.34726l2.121033,1.908325l2.119476,-1.908325c4.683197,-4.210785 11.834686,-4.057495 16.283249,0.34726c4.614365,4.565857 4.614365,11.997345 0.001572,16.566376zm-28.961029,-15.277496c0.433289,0 0.782104,0.350372 0.782104,0.782104s-0.350372,0.782104 -0.782104,0.782104l-0.001556,0c-2.806168,0 -5.082062,2.275909 -5.082062,5.082077l0,0.001572c0,0.431702 -0.350372,0.782074 -0.782089,0.782074s-0.782104,-0.350372 -0.782104,-0.782074l0,0c0,-3.669617 2.973526,-6.643127 6.641571,-6.646271c0.003128,0 0.003128,-0.001587 0.006241,-0.001587z"/>
  </g>
 </g>
</svg>